# AST/ASF file generated using VICON BodyLanguage
# -----------------------------------------------
:version 1.10
:name VICON
:units
  mass 1.0
  length 0.45
  angle deg
:documentation
   .ast/.asf automatically generated from VICON data using
   VICON BodyBuilder and BodyLanguage model FoxedUp or BRILLIANT.MOD
:root
   order TX TY TZ RX RY RZ
   axis XYZ
   position 0 0 0  
   orientation 0 0 0 
:bonedata
  begin
     id 1 
     name lhipjoint
     direction 0.61522 -0.761478 0.204097 
     length 2.55743 
     axis 0 0 0  XYZ
  end
  begin
     id 2 
     name lfemur
     direction 0.34202 -0.939693 0  
     length 7.61162  
     axis 0 0 20  XYZ
    dof rx ry rz
    limits (-160.0 20.0)
           (-70.0 70.0)
           (-60.0 70.0)
  end
  begin
     id 3 
     name ltibia
     direction 0.34202 -0.939693 0   
     length 8.12393   
     axis 0 0 20   XYZ
    dof rx
    limits (-10.0 170.0)
  end
  begin
     id 4 
     name lfoot
     direction 0.0841971 -0.23133 0.969225   
     length 2.3572   
     axis -90 7.62852e-016 20   XYZ
    dof rx rz
    limits (-45.0 90.0)
           (-70.0 20.0)
  end
  begin
     id 5 
     name ltoes
     direction 1.53562e-011 -4.22209e-011 1   
     length 1.17993   
     axis -90 7.62852e-016 20   XYZ
    dof rx
    limits (-90.0 20.0)
  end
  begin
     id 6 
     name rhipjoint
     direction -0.625247 -0.75382 0.202044   
     length 2.58341  
     axis 0 0 0  XYZ 
  end
  begin
     id 7 
     name rfemur
     direction -0.34202 -0.939693 0   
     length 7.42147   
     axis 0 0 -20   XYZ
    dof rx ry rz
    limits (-160.0 20.0)
           (-70.0 70.0)
           (-70.0 60.0)
  end
  begin
     id 8 
     name rtibia
     direction -0.34202 -0.939693 0   
     length 8.20893   
     axis 0 0 -20   XYZ
    dof rx
    limits (-10.0 170.0)
 end
 begin
     id 9 
     name rfoot
     direction -0.124331 -0.341598 0.931586   
     length 2.45604  
     axis -90 -7.62852e-016 -20   XYZ
    dof rx rz
    limits (-45.0 90.0)
           (-20.0 70.0)
  end
  begin
     id 10 
     name rtoes
     direction -1.5353e-011 -4.2199e-011 1   
     length 1.21323   
     axis -90 -7.62852e-016 -20   XYZ
    dof rx
    limits (-90.0 20.0)
  end
  begin
     id 11 
     name lowerback
     direction -0.0218484 0.994884 -0.0986303   
     length 2.00523   
     axis 0 0 0   XYZ
    dof rx ry rz
    limits (-20.0 45.0)
           (-30.0 30.0)
           (-30.0 30.0)
  end
  begin
     id 12 
     name upperback
     direction -0.0097305 0.999717 -0.0217111   
     length 2.01352   
     axis 0 0 0   XYZ
    dof rx ry rz
    limits (-20.0 45.0)
           (-30.0 30.0)
           (-30.0 30.0)
  end
  begin
     id 13 
     name thorax
     direction -0.000928262 0.999699 0.0245198   
     length 2.02938   
     axis 0 0 0   XYZ
    dof rx ry rz
    limits (-20.0 45.0)
           (-30.0 30.0)
           (-30.0 30.0)
  end
  begin
     id 14 
     name lowerneck
     direction -0.0307979 0.998024 0.0547665   
     length 1.77263   
     axis 0 0 0   XYZ
    dof rx ry rz
    limits (-20.0 45.0)
           (-30.0 30.0)
           (-30.0 30.0)
  end
  begin
     id 15 
     name upperneck
     direction 0.0531587 0.996611 -0.0627734   
     length 1.77971   
     axis 0 0 0   XYZ
    dof rx ry rz
    limits (-20.0 45.0)
           (-30.0 30.0)
           (-30.0 30.0)
  end
  begin
     id 16
     name head
     direction 0.0213833 0.999404 -0.0271147  
     length 1.78263  
     axis 0 0 0   XYZ
    dof rx ry rz
    limits (-20.0 45.0)
           (-30.0 30.0)
           (-30.0 30.0)
  end
  begin
     id 17 
     name lclavicle
     direction 0.940017 0.332249 -0.0773233  
     length 3.73315  
     axis 0 0 0   XYZ
    dof ry rz
    limits (-20.0 10.0)
           (0.0 20.0)
  end
  begin
     id 18 
     name lhumerus
     direction 1 -4.48944e-011 7.52288e-028   
     length 5.40188   
     axis 180 -30 -90   XYZ
    dof rx ry rz
    limits (-60.0 90.0)
           (-90.0 90.0)
           (-90.0 90.0)
  end
  begin
     id 19
     name lradius
     direction 1 -4.48988e-011 1.48381e-027   
     length 3.68559   
     axis 180 -30 -90   XYZ
    dof rx
    limits (-10.0 170.0)
  end
  begin
     id 20
     name lwrist
     direction 1 -4.48925e-011 2.56952e-028   
     length 1.84279   
     axis -5.12785e-016 90 90   XYZ
    dof ry
    limits (-180.0 0.0)
 end
  begin
     id 21 
     name lhand
     direction 1 -4.49009e-011 5.13905e-028   
     length 0.61753   
     axis -3.27915e-016 90 90   XYZ
    dof rx rz
    limits (-90.0 90.0)
           (-45.0 45.0)
  end
  begin
     id 22 
     name lfingers
     direction 1 -4.49012e-011 1.02781e-027   
     length 0.497868   
     axis -6.5583e-016 90 90   XYZ
    dof rx
    limits (0.0 90.0)
  end
  begin
     id 23
     name lthumb
     direction 0.707107 -6.34987e-011 0.707107   
     length 0.714842   
     axis -90 45 2.85299e-015   XYZ
    dof rx rz
    limits (-45.0 45.0)
           (-45.0 45.0)
  end
  begin
     id 24 
     name rclavicle
     direction -0.9009 0.425937 -0.0834057   
     length 3.27864  
     axis 0 0 0   XYZ 
    dof ry rz
    limits (-10.0 20.0)
           (-20.0 0.0)
  end
  begin
     id 25 
     name rhumerus
     direction -1 -4.48953e-011 -1.03572e-027  
     length 6.1067   
     axis 180 30 90   XYZ
    dof rx ry rz
    limits (-90.0 60.0)
           (-90.0 90.0)
           (-90.0 90.0)
  end
  begin
     id 26 
     name rradius
     direction -1 -4.48975e-011 1.20742e-027   
     length 3.63052   
     axis 180 30 90   XYZ
    dof rx
    limits (-10.0 170.0)
  end
  begin
     id 27 
     name rwrist
     direction -1 -4.49017e-011 2.56952e-028   
     length 1.81526   
     axis -5.12785e-016 -90 -90   XYZ
    dof ry
    limits (-180.0 0.0)
  end
  begin
     id 28
     name rhand
     direction -1 -4.48832e-011 5.13905e-028   
     length 0.583848   
     axis -3.27915e-016 -90 -90   XYZ
    dof rx rz
    limits (-90.0 90.0)
           (-45.0 45.0)
  end
  begin
     id 29
     name rfingers
     direction -1 -4.48729e-011 1.02781e-027   
     length 0.470713   
     axis -6.5583e-016 -90 -90   XYZ
    dof rx
    limits (0.0 90.0)
  end
  begin
     id 30
     name rthumb
     direction -0.707107 -6.34964e-011 0.707107   
     length 0.675852   
     axis -90 -45 -2.85299e-015   XYZ
    dof rx rz
    limits (-45.0 45.0)
           (-45.0 45.0)
  end
:hierarchy
  begin
    root lhipjoint rhipjoint lowerback
    lhipjoint lfemur
    lfemur ltibia
    ltibia lfoot
    lfoot ltoes
    rhipjoint rfemur
    rfemur rtibia
    rtibia rfoot
    rfoot rtoes
    lowerback upperback
    upperback thorax
    thorax lowerneck lclavicle rclavicle
    lowerneck upperneck
    upperneck head
    lclavicle lhumerus
    lhumerus lradius
    lradius lwrist
    lwrist lhand lthumb
    lhand lfingers
    rclavicle rhumerus
    rhumerus rradius
    rradius rwrist
    rwrist rhand rthumb
    rhand rfingers
  end

#!OML:ASF F:\VICON\USERDATA\INSTALL\rory3\rory3.ASF
:FULLY-SPECIFIED
:DEGREES
95
root 0.0559199 18.2382 -2.22164 -1.72975 38.1643 -1.901
lowerback 1.78364 11.7455 3.90409
upperback -2.33055 15.7624 -4.92858
thorax -0.979702 7.86209 -7.29901
lowerneck -6.48144 -8.50922 -11.6212
upperneck 8.63224 -11.6949 13.5724
head 5.15088 -5.44769 5.26275
rclavicle 1.23868e-014 -3.97569e-014
rhumerus 15.8241 34.2043 -49.4795
rradius 89.2352
rwrist 19.5473
rhand -37.3945 14.2807
rfingers 7.12502
rthumb -10.4552 -15.4393
lclavicle 1.23868e-014 -3.97569e-014
lhumerus -45.667 19.9671 28.3159
lradius 86.7886
lwrist 4.31213
lhand -32.2205 14.2697
lfingers 7.12502
lthumb -5.46159 44.1794
rfemur 8.4724 5.67242 24.5076
rtibia 21.5213
rfoot -37.8074 -37.1137
rtoes 5.70201
lfemur -21.8991 -17.8894 -9.24429
ltibia 35.1294
lfoot -11.7243 -8.66696
ltoes -5.31414
96
root 0.0763131 18.2308 -2.2255 -1.67808 38.4615 -2.10682
lowerback 1.81789 11.7888 3.99682
upperback -2.40868 15.8224 -4.81394
thorax -1.07942 7.88415 -7.24657
lowerneck -6.44988 -8.45416 -11.8479
upperneck 8.40158 -11.5892 13.6785
head 5.08163 -5.40365 5.34596
rclavicle -2.04549e-013 3.18055e-015
rhumerus 16.9742 35.5361 -48.8433
rradius 90.2007
rwrist 19.7674
rhand -37.9692 13.559
rfingers 7.12502
rthumb -11.0096 -16.1322
lclavicle -2.04549e-013 3.18055e-015
lhumerus -46.5302 20.3899 28.2443
lradius 86.917
lwrist 3.90468
lhand -31.9633 13.9199
lfingers 7.12502
lthumb -5.21333 43.8358
rfemur 8.52411 5.71573 24.695
rtibia 21.2133
rfoot -38.0633 -37.2514
rtoes 5.96924
lfemur -22.3925 -17.8496 -9.12149
ltibia 35.5398
lfoot -11.8535 -8.79067
ltoes -6.74082
97
root 0.0988289 18.2249 -2.22955 -1.49575 38.6687 -2.18184
lowerback 1.76538 11.8492 4.03333
upperback -2.47521 15.9026 -4.78784
thorax -1.10611 7.92126 -7.23149
lowerneck -6.54624 -8.39732 -11.88
upperneck 8.24633 -11.4864 13.705
head 5.04085 -5.35195 5.36722
rclavicle -4.27014e-014 -2.38542e-014
rhumerus 18.1715 36.8117 -48.2795
rradius 91.0525
rwrist 19.9307
rhand -38.0203 11.9589
rfingers 7.12502
rthumb -11.0588 -17.7298
lclavicle -4.27014e-014 -2.38542e-014
lhumerus -47.3401 20.6909 28.1279
lradius 86.9889
lwrist 3.63894
lhand -31.9126 13.7763
lfingers 7.12502
lthumb -5.16435 43.6934
rfemur 8.48026 5.73813 24.7267
rtibia 20.9729
rfoot -38.3591 -37.2286
rtoes 6.61208
lfemur -22.8658 -17.8591 -9.07769
ltibia 35.8807
lfoot -11.9777 -8.87173
ltoes -7.25755
98
root 0.121095 18.2189 -2.2308 -1.20755 38.8761 -2.02817
lowerback 1.80818 11.8774 4.16797
upperback -2.55875 15.9487 -5.03939
thorax -1.1024 7.94572 -7.56452
lowerneck -6.67002 -8.34312 -11.5318
upperneck 8.09588 -11.4256 13.7566
head 4.99135 -5.3051 5.3305
rclavicle -2.7395e-014 3.02153e-014
rhumerus 19.2678 37.9905 -48.109
rradius 91.8953
rwrist 19.9237
rhand -37.574 11.6782
rfingers 7.12502
rthumb -10.6283 -18.033
lclavicle -2.7395e-014 3.02153e-014
lhumerus -47.8746 20.8017 27.7474
lradius 86.981
lwrist 3.64496
lhand -31.961 13.573
lfingers 7.12502
lthumb -5.21104 43.489
rfemur 8.45177 5.74104 24.5756
rtibia 20.8153
rfoot -38.6496 -37.2139
rtoes 7.02924
lfemur -23.223 -17.9417 -9.22383
ltibia 36.1304
lfoot -12.0418 -8.93144
ltoes -6.91329
99
root 0.136902 18.2126 -2.23133 -1.17785 39.021 -2.1214
lowerback 2.28274 11.8675 5.05767
upperback -2.73411 15.9918 -5.62239
thorax -1.13645 7.9639 -8.71118
lowerneck -6.73175 -8.29074 -10.8938
upperneck 7.81925 -11.4178 14.0761
head 4.90067 -5.26513 5.3303
rclavicle 3.17726e-013 1.59028e-014
rhumerus 20.2641 39.0105 -48.5101
rradius 92.6732
rwrist 19.8683
rhand -37.0953 12.9903
rfingers 7.12502
rthumb -10.1666 -16.744
lclavicle 3.17726e-013 1.59028e-014
lhumerus -48.0323 20.9037 26.9806
lradius 86.8267
lwrist 3.53541
lhand -31.9586 13.4882
lfingers 7.12502
lthumb -5.20873 43.4042
rfemur 8.48089 5.7857 24.6749
rtibia 20.7077
rfoot -38.9091 -37.24
rtoes 7.29852
lfemur -23.4397 -17.8763 -9.16713
ltibia 36.3094
lfoot -12.0461 -9.09812
ltoes -6.73984
100
root 0.151591 18.2091 -2.23261 -1.20536 39.1058 -2.16007
lowerback 2.39274 12.0515 4.83889
upperback -2.64118 16.2295 -5.37657
thorax -1.18632 8.08158 -8.35768
lowerneck -6.75187 -8.39141 -11.054
upperneck 7.55259 -11.4979 13.9492
head 4.83488 -5.32096 5.30783
rclavicle -2.65833e-013 -2.22639e-014
rhumerus 21.3182 40.2493 -47.4403
rradius 93.4861
rwrist 19.6056
rhand -36.9831 13.9259
rfingers 7.12502
rthumb -10.0583 -15.8137
lclavicle -2.65833e-013 -2.22639e-014
lhumerus -48.6889 21.1989 27.4947
lradius 86.8067
lwrist 3.18946
lhand -31.9049 13.4747
lfingers 7.12502
lthumb -5.15693 43.3919
rfemur 8.59311 5.92588 24.7366
rtibia 20.6041
rfoot -39.1444 -37.2983
rtoes 7.29507
lfemur -23.5139 -17.7379 -9.20146
ltibia 36.4411
lfoot -12.0288 -9.26157
ltoes -6.78941
101
root 0.167215 18.2067 -2.23452 -1.08436 39.2155 -2.03039
lowerback 2.42865 12.1827 4.52149
upperback -2.56019 16.3905 -5.20497
thorax -1.22934 8.16313 -8.02303
lowerneck -6.85332 -8.45649 -11.203
upperneck 7.42627 -11.5434 13.8794
head 4.82397 -5.34998 5.30144
rclavicle 8.4909e-014 6.36111e-015
rhumerus 22.3975 41.5181 -46.4914
rradius 94.2545
rwrist 19.3098
rhand -36.8421 14.5326
rfingers 7.12502
rthumb -9.92235 -15.2135
lclavicle 8.4909e-014 6.36111e-015
lhumerus -49.4396 21.4523 27.8843
lradius 86.7515
lwrist 2.88948
lhand -31.8586 13.1008
lfingers 7.12502
lthumb -5.11216 43.0191
rfemur 8.67522 6.04923 24.6442
rtibia 20.4975
rfoot -39.3486 -37.3924
rtoes 6.98124
lfemur -23.6141 -17.6495 -9.38291
ltibia 36.5296
lfoot -12.0286 -9.28021
ltoes -6.92333
102
root 0.182425 18.2056 -2.23512 -1.03078 39.297 -2.14289
lowerback 2.3186 12.3094 4.40661
upperback -2.51523 16.5508 -5.0552
thorax -1.17156 8.24568 -7.77743
lowerneck -6.86436 -8.48647 -11.2128
upperneck 7.2023 -11.5572 13.8561
head 4.75898 -5.36192 5.29511
rclavicle -9.9411e-014 3.02153e-014
rhumerus 23.4614 42.7542 -45.7127
rradius 94.9338
rwrist 19.1553
rhand -36.6128 14.6131
rfingers 7.12502
rthumb -9.70105 -15.1435
lclavicle -9.9411e-014 3.02153e-014
lhumerus -50.0792 21.584 28.1809
lradius 86.6065
lwrist 2.59542
lhand -31.8504 12.8459
lfingers 7.12502
lthumb -5.10433 42.7645
rfemur 8.6371 6.18807 24.7545
rtibia 20.4237
rfoot -39.6393 -37.4145
rtoes 7.02531
lfemur -23.7937 -17.4772 -9.31822
ltibia 36.5806
lfoot -12.0161 -9.32767
ltoes -6.87716
103
root 0.198474 18.2077 -2.23556 -0.930362 39.3188 -2.15547
lowerback 2.3358 12.3962 4.52541
upperback -2.50238 16.6739 -5.15945
thorax -1.08369 8.31252 -7.93122
lowerneck -6.85928 -8.47113 -10.9372
upperneck 6.87509 -11.5407 13.9656
head 4.6484 -5.34617 5.29003
rclavicle -4.42296e-015 -6.36111e-015
rhumerus 24.4789 43.8725 -45.35
rradius 95.5176
rwrist 19.0041
rhand -36.3183 14.5227
rfingers 7.12502
rthumb -9.41689 -15.247
lclavicle -4.42296e-015 -6.36111e-015
lhumerus -50.5723 21.6782 28.2251
lradius 86.4478
lwrist 2.38072
lhand -31.8782 12.4822
lfingers 7.12502
lthumb -5.13111 42.4001
rfemur 8.59088 6.38459 24.7754
rtibia 20.3676
rfoot -39.762 -37.5573
rtoes 7.34475
lfemur -23.9181 -17.2364 -9.34089
ltibia 36.6157
lfoot -11.9919 -9.54609
ltoes -6.55706
104
root 0.214904 18.2109 -2.2369 -0.68054 39.3369 -2.04712
lowerback 2.12369 12.4733 4.32158
upperback -2.41086 16.7631 -5.10644
thorax -0.92978 8.36661 -7.71051
lowerneck -7.01498 -8.48953 -10.8378
upperneck 6.69225 -11.5379 13.9089
head 4.60982 -5.34199 5.2519
rclavicle 7.11152e-014 -3.18055e-015
rhumerus 25.6811 45.1356 -44.4359
rradius 96.2292
rwrist 18.8193
rhand -36.1061 13.9587
rfingers 7.12502
rthumb -9.21217 -15.8201
lclavicle 7.11152e-014 -3.18055e-015
lhumerus -51.4082 21.9588 28.5609
lradius 86.3849
lwrist 1.88823
lhand -31.9363 12.2209
lfingers 7.12502
lthumb -5.18723 42.1374
rfemur 8.48363 6.39285 24.6101
rtibia 20.2604
rfoot -39.7481 -37.5093
rtoes 7.69517
lfemur -24.1221 -17.0404 -9.44834
ltibia 36.6795
lfoot -11.9726 -9.74812
ltoes -6.24048
105
root 0.228989 18.2142 -2.23892 -0.58705 39.4115 -2.22188
lowerback 1.94464 12.521 4.33268
upperback -2.37613 16.8217 -5.0135
thorax -0.811626 8.39947 -7.57036
lowerneck -7.11421 -8.48928 -10.8878
upperneck 6.54038 -11.5201 14.0315
head 4.58956 -5.32738 5.29756
rclavicle 6.51765e-014 1.90833e-014
rhumerus 26.8505 46.4422 -43.5755
rradius 96.8087
rwrist 18.9045
rhand -36.0244 13.2521
rfingers 7.12502
rthumb -9.13335 -16.5301
lclavicle 6.51765e-014 1.90833e-014
lhumerus -52.3365 22.2161 28.8999
lradius 86.2994
lwrist 1.14024
lhand -32.0531 11.7642
lfingers 7.12502
lthumb -5.3 41.6779
rfemur 8.3275 6.3821 24.7141
rtibia 20.1762
rfoot -39.7317 -37.5582
rtoes 7.74847
lfemur -24.3711 -16.9161 -9.29445
ltibia 36.7233
lfoot -11.951 -9.89599
ltoes -5.7728
106
root 0.242789 18.2174 -2.24487 -0.800375 39.4397 -2.60252
lowerback 2.07038 12.5484 4.68094
upperback -2.38869 16.8741 -4.93481
thorax -0.812175 8.4213 -7.68578
lowerneck -7.01686 -8.45834 -10.9228
upperneck 6.33541 -11.4796 14.2299
head 4.5213 -5.30655 5.37506
rclavicle 1.03617e-014 4.29375e-014
rhumerus 27.9087 47.7346 -42.9946
rradius 97.0875
rwrist 18.9994
rhand -36.0061 13.4042
rfingers 7.12502
rthumb -9.11565 -16.3788
lclavicle 1.03617e-014 4.29375e-014
lhumerus -53.139 22.3087 29.0875
lradius 86.0592
lwrist 0.400739
lhand -32.0418 11.2299
lfingers 7.12502
lthumb -5.28911 41.1439
rfemur 8.32377 6.27696 24.9741
rtibia 20.1273
rfoot -39.5797 -37.574
rtoes 7.73825
lfemur -24.4016 -16.7992 -9.02913
ltibia 36.7315
lfoot -11.9405 -9.95998
ltoes -5.94694
